<svg height="469.333" width="469.333" xmlns="http://www.w3.org/2000/svg"><path d="m-1-1h582v402h-582z" fill="none"/><path d="m426.667 85.333h-198.25l-39.542-39.542c-2-2-4.708-3.125-7.542-3.125h-138.666c-23.521.001-42.667 19.136-42.667 42.667v298.667c0 23.531 19.146 42.667 42.667 42.667h384c23.521 0 42.667-19.135 42.667-42.667v-256c-.001-23.531-19.146-42.667-42.667-42.667zm-213.584 168.48c0 .167.146 1.469.229 2.156h-.021c-.042.333-.208 1.896-.208 2.229-.208 4.219 2.104 8.146 5.875 10.031l41.021 20.5c3.813 1.865 8.354 1.375 11.604-1.344 7.896-6.573 17.271-10.052 27.083-10.052 23.521 0 42.667 19.135 42.667 42.667 0 23.531-19.146 42.667-42.667 42.667s-42.667-19.135-42.625-42.635c.042-.333.208-1.875.208-2.219.208-4.208-2.104-8.146-5.875-10.031l-41.021-20.5c-1.521-.75-3.146-1.125-4.771-1.125-2.438 0-4.854.833-6.813 2.458-7.917 6.573-17.292 10.052-27.104 10.052-23.519 0-42.665-19.136-42.665-42.667s19.146-42.667 42.667-42.667c9.813 0 19.188 3.479 27.083 10.052 3.25 2.688 7.792 3.219 11.604 1.344l41.021-20.51c3.771-1.885 6.083-5.823 5.875-10.031-.021-.75-.104-1.49-.25-2.188 0-23.531 19.146-42.667 42.667-42.667s42.667 19.135 42.667 42.667-19.146 42.667-42.667 42.667c-9.813 0-19.188-3.479-27.083-10.052-3.271-2.708-7.813-3.219-11.604-1.344l-41.021 20.51c-3.772 1.886-6.084 5.823-5.876 10.032z" fill="#fff"/></svg>