<?xml version="1.0" encoding="iso-8859-1"?>
<!-- Generator: Adobe Illustrator 19.0.0, SVG Export Plug-In . SVG Version: 6.00 Build 0)  -->
<svg version="1.1" id="Capa_1" xmlns="http://www.w3.org/2000/svg" xmlns:xlink="http://www.w3.org/1999/xlink" x="0px" y="0px"
	 viewBox="0 0 469.333 469.333" style="enable-background:new 0 0 469.333 469.333;" xml:space="preserve">
<g>
	<g>
		<path d="M426.667,85.333h-198.25l-39.542-39.542c-2-2-4.708-3.125-7.542-3.125H42.667C19.146,42.667,0,61.802,0,85.333V384
			c0,23.531,19.146,42.667,42.667,42.667h384c23.521,0,42.667-19.135,42.667-42.667V128
			C469.333,104.469,450.188,85.333,426.667,85.333z M213.083,253.813c0,0.167,0.146,1.469,0.229,2.156h-0.021
			c-0.042,0.333-0.208,1.896-0.208,2.229c-0.208,4.219,2.104,8.146,5.875,10.031l41.021,20.5c3.813,1.865,8.354,1.375,11.604-1.344
			c7.896-6.573,17.271-10.052,27.083-10.052c23.521,0,42.667,19.135,42.667,42.667c0,23.531-19.146,42.667-42.667,42.667
			c-23.521,0-42.667-19.135-42.625-42.635c0.042-0.333,0.208-1.875,0.208-2.219c0.208-4.208-2.104-8.146-5.875-10.031l-41.021-20.5
			c-1.521-0.75-3.146-1.125-4.771-1.125c-2.438,0-4.854,0.833-6.813,2.458c-7.917,6.573-17.292,10.052-27.104,10.052
			C147.146,298.667,128,279.531,128,256s19.146-42.667,42.667-42.667c9.813,0,19.188,3.479,27.083,10.052
			c3.25,2.688,7.792,3.219,11.604,1.344l41.021-20.51c3.771-1.885,6.083-5.823,5.875-10.031c-0.021-0.75-0.104-1.49-0.25-2.188
			c0-23.531,19.146-42.667,42.667-42.667c23.521,0,42.667,19.135,42.667,42.667s-19.146,42.667-42.667,42.667
			c-9.813,0-19.188-3.479-27.083-10.052c-3.271-2.708-7.813-3.219-11.604-1.344l-41.021,20.51
			C215.187,245.667,212.875,249.604,213.083,253.813z"/>
	</g>
</g>
<g>
</g>
<g>
</g>
<g>
</g>
<g>
</g>
<g>
</g>
<g>
</g>
<g>
</g>
<g>
</g>
<g>
</g>
<g>
</g>
<g>
</g>
<g>
</g>
<g>
</g>
<g>
</g>
<g>
</g>
</svg>
